<?xml version="1.0" standalone="no"?><!DOCTYPE svg PUBLIC "-//W3C//DTD SVG 1.1//EN" "http://www.w3.org/Graphics/SVG/1.1/DTD/svg11.dtd"><svg t="1680317626082" class="icon" viewBox="0 0 1024 1024" version="1.1" xmlns="http://www.w3.org/2000/svg" p-id="2038" xmlns:xlink="http://www.w3.org/1999/xlink" width="200" height="200"><path d="M1021.05 914.59L654.21 119.77A96.27 96.27 0 0 0 567.05 64H480a32 32 0 0 0-29 18.59l-384 832A32 32 0 0 0 96 960h215.05a96.27 96.27 0 0 0 87.16-55.77l41-88.84 255.45 127.72A160.84 160.84 0 0 0 766.22 960H992a32 32 0 0 0 29-45.41z m-680.94-37.18A32.11 32.11 0 0 1 311.05 896H274l61.21-132.61L382 786.75z m383.17 8.45L438.41 743.43l-0.16-0.08-103.77-51.89-0.81-0.39a31.83 31.83 0 0 0-24-1.37h-0.05a31.84 31.84 0 0 0-18.53 16.59c-0.06 0.12-0.12 0.25-0.17 0.37L203.53 896H146l354.47-768H558L339 602.59c-0.05 0.09-0.08 0.18-0.12 0.27a32 32 0 0 0 14.86 41.76l291.2 145.6a32 32 0 0 0 45.91-33.63c1-0.46 0.22-2.4-2.55-8.4L579.24 512 608 449.7 814 896h-47.78a96.41 96.41 0 0 1-42.94-10.14zM544 588.36l47.92 103.82-77.87-38.93zM884.47 896L637.05 359.92a32 32 0 0 0-58-0.2l-0.1 0.2-122.17 264.69-46.73-23.36L608 172.36 942 896z" fill="#FA541C" p-id="2039"></path></svg>